<?xml version="1.0" standalone="no"?><!DOCTYPE svg PUBLIC "-//W3C//DTD SVG 1.1//EN" "http://www.w3.org/Graphics/SVG/1.1/DTD/svg11.dtd"><svg t="1578565586381" class="icon" viewBox="0 0 1024 1024" version="1.1" xmlns="http://www.w3.org/2000/svg" p-id="1396" xmlns:xlink="http://www.w3.org/1999/xlink" width="300" height="300"><defs><style type="text/css"></style></defs><path d="M155.818667 354.986667S76.288 126.122667 287.061333 37.034667a465.237333 465.237333 0 0 1 388.778667 11.605333s122.368-8.533333 177.493333 63.317333c65.194667 85.333333 12.970667 256 12.970667 256z" fill="#FFD073" p-id="1397"></path><path d="M597.333333 682.666667l-85.333333 1.024-85.333333-1.024s17.066667 79.36-37.376 100.522666c0 0 6.997333 74.410667 121.685333 74.410667s122.709333-74.410667 122.709333-74.410667C579.413333 762.538667 597.333333 682.666667 597.333333 682.666667z" fill="#FFEDE1" p-id="1398"></path><path d="M516.949333 758.101333a182.784 182.784 0 0 0 80.725334-17.066666A139.946667 139.946667 0 0 1 597.333333 682.666667l-85.333333 1.024-85.333333-1.024a136.533333 136.533333 0 0 1-1.536 59.733333 197.461333 197.461333 0 0 0 91.818666 15.701333z" fill="#FFCFAE" p-id="1399"></path><path d="M97.621333 439.978667a112.469333 108.885333 0 1 0 224.938667 0 112.469333 108.885333 0 1 0-224.938667 0Z" fill="#FFEDE1" p-id="1400"></path><path d="M706.730667 439.978667a109.909333 108.885333 0 1 0 219.818666 0 109.909333 108.885333 0 1 0-219.818666 0Z" fill="#FFEDE1" p-id="1401"></path><path d="M152.064 439.978667a46.933333 45.397333 0 1 0 93.866667 0 46.933333 45.397333 0 1 0-93.866667 0Z" fill="#FFCFAE" p-id="1402"></path><path d="M778.069333 439.978667a46.933333 45.397333 0 1 0 93.866667 0 46.933333 45.397333 0 1 0-93.866667 0Z" fill="#FFCFAE" p-id="1403"></path><path d="M225.962667 274.602667S140.970667 443.733333 204.8 584.021333c86.528 189.269333 529.066667 190.293333 617.301333-5.802666 61.269333-136.533333-32.256-305.493333-32.256-305.493334z" fill="#FFEDE1" p-id="1404"></path><path d="M641.877333 443.733333l20.821334-18.944a34.133333 34.133333 0 0 0-28.16-15.36 36.693333 36.693333 0 1 0 34.133333 40.106667zM397.141333 443.733333l20.821334-18.944a34.133333 34.133333 0 0 0-28.16-15.36 36.693333 36.693333 0 1 0 34.133333 40.106667z" fill="#302B28" p-id="1405"></path><path d="M486.570667 530.261333a25.429333 15.36 0 1 0 50.858666 0 25.429333 15.36 0 1 0-50.858666 0Z" fill="#FFCFAE" p-id="1406"></path><path d="M485.205333 612.693333a30.890667 26.794667 90 1 0 53.589334 0 30.890667 26.794667 90 1 0-53.589334 0Z" fill="#FF4545" p-id="1407"></path><path d="M733.866667 546.133333a8.533333 8.533333 0 0 1-7.509334-4.608l-8.533333-17.066666a8.533333 8.533333 0 1 1 15.189333-7.850667l8.533334 17.066667a8.533333 8.533333 0 0 1-3.754667 11.434666 8.362667 8.362667 0 0 1-3.925333 1.024zM778.410667 546.133333a8.533333 8.533333 0 0 1-7.509334-4.608l-8.533333-17.066666a8.533333 8.533333 0 1 1 15.189333-7.850667l8.533334 17.066667a8.533333 8.533333 0 0 1-3.754667 11.434666 8.362667 8.362667 0 0 1-3.925333 1.024zM290.133333 546.133333a8.362667 8.362667 0 0 1-3.925333-1.024 8.533333 8.533333 0 0 1-3.754667-11.434666l8.533334-17.066667a8.533333 8.533333 0 1 1 15.189333 7.850667l-8.533333 17.066666A8.533333 8.533333 0 0 1 290.133333 546.133333zM245.589333 546.133333a8.362667 8.362667 0 0 1-3.925333-1.024 8.533333 8.533333 0 0 1-3.754667-11.434666l8.533334-17.066667a8.533333 8.533333 0 1 1 15.189333 7.850667l-8.533333 17.066666a8.533333 8.533333 0 0 1-7.509334 4.608z" fill="#FF4545" p-id="1408"></path><path d="M777.898667 938.666667l-25.088-69.632A132.778667 132.778667 0 0 0 631.466667 781.312c-4.437333 38.912-55.808 69.802667-119.466667 69.802667s-114.346667-30.72-119.466667-69.802667a132.778667 132.778667 0 0 0-122.026666 87.552L246.101333 938.666667a32.768 32.768 0 0 0 13.653334 39.082666C290.133333 996.522667 360.96 1024 512 1024s221.866667-27.477333 252.074667-46.592a32.768 32.768 0 0 0 13.824-38.741333z" fill="#FF7752" p-id="1409"></path><path d="M496.981333 627.370667a15.018667 11.946667 0 1 0 30.037334 0 15.018667 11.946667 0 1 0-30.037334 0Z" fill="#FF9999" p-id="1410"></path><path d="M196.266667 329.898667a538.282667 538.282667 0 0 0 220.842666 14.506666C559.957333 322.218667 614.4 273.066667 614.4 273.066667a271.872 271.872 0 0 0 130.901333 59.733333 219.818667 219.818667 0 0 0 112.298667-14.848s-25.6-115.882667-349.866667-115.882667-311.466667 127.829333-311.466666 127.829334z" fill="#FFD073" p-id="1411"></path></svg>