<?xml version="1.0" standalone="no"?><!DOCTYPE svg PUBLIC "-//W3C//DTD SVG 1.1//EN" "http://www.w3.org/Graphics/SVG/1.1/DTD/svg11.dtd"><svg t="1578040228347" class="icon" viewBox="0 0 1024 1024" version="1.1" xmlns="http://www.w3.org/2000/svg" p-id="1211" xmlns:xlink="http://www.w3.org/1999/xlink" width="300" height="300"><defs><style type="text/css"></style></defs><path d="M144.725333 388.266667s-4.266667-174.421333 42.666667-273.066667S356.693333 0 506.026667 0s268.8 21.333333 315.733333 89.6C882.176 177.493333 876.373333 392.533333 876.373333 392.533333z" fill="#6C7AE5" p-id="1212"></path><path d="M597.333333 682.666667l-85.333333 1.024-85.333333-1.024s17.066667 79.36-37.376 100.522666c0 0 6.997333 74.410667 121.685333 74.410667s122.709333-74.410667 122.709333-74.410667C579.413333 762.538667 597.333333 682.666667 597.333333 682.666667z" fill="#FFEDE1" p-id="1213"></path><path d="M516.949333 758.101333a182.784 182.784 0 0 0 80.725334-17.066666A139.946667 139.946667 0 0 1 597.333333 682.666667l-85.333333 1.024-85.333333-1.024a136.533333 136.533333 0 0 1-1.536 59.733333 197.461333 197.461333 0 0 0 91.818666 15.701333z" fill="#FFCFAE" p-id="1214"></path><path d="M97.621333 439.978667a112.469333 108.885333 0 1 0 224.938667 0 112.469333 108.885333 0 1 0-224.938667 0Z" fill="#FFEDE1" p-id="1215"></path><path d="M706.730667 439.978667a109.909333 108.885333 0 1 0 219.818666 0 109.909333 108.885333 0 1 0-219.818666 0Z" fill="#FFEDE1" p-id="1216"></path><path d="M152.064 439.978667a46.933333 45.397333 0 1 0 93.866667 0 46.933333 45.397333 0 1 0-93.866667 0Z" fill="#FFCFAE" p-id="1217"></path><path d="M778.069333 439.978667a46.933333 45.397333 0 1 0 93.866667 0 46.933333 45.397333 0 1 0-93.866667 0Z" fill="#FFCFAE" p-id="1218"></path><path d="M225.962667 274.602667S140.970667 443.733333 204.8 584.021333c86.528 189.269333 529.066667 190.293333 617.301333-5.802666 61.269333-136.533333-32.256-305.493333-32.256-305.493334z" fill="#FFEDE1" p-id="1219"></path><path d="M641.877333 443.733333l20.821334-18.944a34.133333 34.133333 0 0 0-28.16-15.36 36.693333 36.693333 0 1 0 34.133333 40.106667zM397.141333 443.733333l20.821334-18.944a34.133333 34.133333 0 0 0-28.16-15.36 36.693333 36.693333 0 1 0 34.133333 40.106667z" fill="#302B28" p-id="1220"></path><path d="M486.570667 530.261333a25.429333 15.36 0 1 0 50.858666 0 25.429333 15.36 0 1 0-50.858666 0Z" fill="#FFCFAE" p-id="1221"></path><path d="M485.205333 612.693333a30.890667 26.794667 90 1 0 53.589334 0 30.890667 26.794667 90 1 0-53.589334 0Z" fill="#FF4545" p-id="1222"></path><path d="M733.866667 546.133333a8.533333 8.533333 0 0 1-7.509334-4.608l-8.533333-17.066666a8.533333 8.533333 0 1 1 15.189333-7.850667l8.533334 17.066667a8.533333 8.533333 0 0 1-3.754667 11.434666 8.362667 8.362667 0 0 1-3.925333 1.024zM778.410667 546.133333a8.533333 8.533333 0 0 1-7.509334-4.608l-8.533333-17.066666a8.533333 8.533333 0 1 1 15.189333-7.850667l8.533334 17.066667a8.533333 8.533333 0 0 1-3.754667 11.434666 8.362667 8.362667 0 0 1-3.925333 1.024zM290.133333 546.133333a8.362667 8.362667 0 0 1-3.925333-1.024 8.533333 8.533333 0 0 1-3.754667-11.434666l8.533334-17.066667a8.533333 8.533333 0 1 1 15.189333 7.850667l-8.533333 17.066666A8.533333 8.533333 0 0 1 290.133333 546.133333zM245.589333 546.133333a8.362667 8.362667 0 0 1-3.925333-1.024 8.533333 8.533333 0 0 1-3.754667-11.434666l8.533334-17.066667a8.533333 8.533333 0 1 1 15.189333 7.850667l-8.533333 17.066666a8.533333 8.533333 0 0 1-7.509334 4.608z" fill="#FF4545" p-id="1223"></path><path d="M777.898667 938.666667l-25.088-69.632A132.778667 132.778667 0 0 0 631.466667 781.312c-4.437333 38.912-55.808 69.802667-119.466667 69.802667s-114.346667-30.72-119.466667-69.802667a132.778667 132.778667 0 0 0-122.026666 87.552L246.101333 938.666667a32.768 32.768 0 0 0 13.653334 39.082666C290.133333 996.522667 360.96 1024 512 1024s221.866667-27.477333 252.074667-46.592a32.768 32.768 0 0 0 13.824-38.741333z" fill="#8DD9FF" p-id="1224"></path><path d="M496.981333 627.370667a15.018667 11.946667 0 1 0 30.037334 0 15.018667 11.946667 0 1 0-30.037334 0Z" fill="#FF9999" p-id="1225"></path><path d="M225.962667 274.602667a130.048 130.048 0 0 1 111.957333-44.202667c72.192 6.314667 96.085333 42.666667 169.642667 42.666667s98.133333-44.373333 163.157333-46.933334a145.749333 145.749333 0 0 1 119.466667 46.592 943.616 943.616 0 0 1-276.48 43.008 1122.645333 1122.645333 0 0 1-287.744-41.130666z" fill="#FFEDE1" p-id="1226"></path></svg>